<svg xmlns="http://www.w3.org/2000/svg" xmlns:xlink="http://www.w3.org/1999/xlink" width="2763" zoomAndPan="magnify" viewBox="0 0 2072.25 1784.24999" height="2379" preserveAspectRatio="xMidYMid meet" version="1.0"><defs><g/><clipPath id="9030257ec0"><path d="M 569.332031 1125.992188 L 1037.886719 1125.992188 L 1037.886719 1594.546875 L 569.332031 1594.546875 Z M 569.332031 1125.992188 " clip-rule="nonzero"/></clipPath><clipPath id="9492940894"><path d="M 1037.886719 657.441406 L 1506.4375 657.441406 L 1506.4375 1125.992188 L 1037.886719 1125.992188 Z M 1037.886719 657.441406 " clip-rule="nonzero"/></clipPath><clipPath id="8cf6757bda"><path d="M 1506.4375 657.441406 L 1974.992188 657.441406 L 1974.992188 1125.992188 L 1506.4375 1125.992188 Z M 1506.4375 657.441406 " clip-rule="nonzero"/></clipPath><clipPath id="4aa68706c7"><path d="M 1037.886719 1125.992188 L 1506.4375 1125.992188 L 1506.4375 1594.546875 L 1037.886719 1594.546875 Z M 1037.886719 1125.992188 " clip-rule="nonzero"/></clipPath><clipPath id="e4fb7ee9be"><path d="M 1506.4375 1125.992188 L 1974.992188 1125.992188 L 1974.992188 1594.546875 L 1506.4375 1594.546875 Z M 1506.4375 1125.992188 " clip-rule="nonzero"/></clipPath><clipPath id="e551245fc1"><path d="M 1506.4375 188.886719 L 1974.992188 188.886719 L 1974.992188 657.441406 L 1506.4375 657.441406 Z M 1506.4375 188.886719 " clip-rule="nonzero"/></clipPath><clipPath id="084c0e6482"><path d="M 100.78125 1125.992188 L 569.332031 1125.992188 L 569.332031 1594.546875 L 100.78125 1594.546875 Z M 100.78125 1125.992188 " clip-rule="nonzero"/></clipPath><clipPath id="bc5486db79"><path d="M 569.332031 657.441406 L 1037.886719 657.441406 L 1037.886719 1125.992188 L 569.332031 1125.992188 Z M 569.332031 657.441406 " clip-rule="nonzero"/></clipPath><clipPath id="78dea3d7f4"><path d="M 1037.886719 188.886719 L 1506.4375 188.886719 L 1506.4375 657.441406 L 1037.886719 657.441406 Z M 1037.886719 188.886719 " clip-rule="nonzero"/></clipPath><clipPath id="3d62b37766"><path d="M 100.78125 657.441406 L 569.332031 657.441406 L 569.332031 1125.992188 L 100.78125 1125.992188 Z M 100.78125 657.441406 " clip-rule="nonzero"/></clipPath><clipPath id="44f197d680"><path d="M 569.332031 188.886719 L 1037.886719 188.886719 L 1037.886719 657.441406 L 569.332031 657.441406 Z M 569.332031 188.886719 " clip-rule="nonzero"/></clipPath><clipPath id="56bd5524cd"><path d="M 100.78125 188.886719 L 569.332031 188.886719 L 569.332031 657.441406 L 100.78125 657.441406 Z M 100.78125 188.886719 " clip-rule="nonzero"/></clipPath><clipPath id="f5b6884d43"><path d="M 1555.078125 1174.632812 L 1926.351562 1174.632812 L 1926.351562 1545.90625 L 1555.078125 1545.90625 Z M 1555.078125 1174.632812 " clip-rule="nonzero"/></clipPath><clipPath id="48a7f0b199"><path d="M 1740.714844 1174.632812 L 1799.785156 1301.199219 L 1926.351562 1360.269531 L 1799.785156 1419.339844 L 1740.714844 1545.90625 L 1681.648438 1419.339844 L 1555.078125 1360.269531 L 1681.648438 1301.199219 Z M 1740.714844 1174.632812 " clip-rule="nonzero"/></clipPath></defs><g clip-path="url(#9030257ec0)"><path fill="#f8f2ea" d="M 569.332031 1125.992188 L 1037.886719 1125.992188 L 1037.886719 1594.546875 L 569.332031 1594.546875 Z M 569.332031 1125.992188 " fill-opacity="1" fill-rule="nonzero"/></g><g clip-path="url(#9492940894)"><path fill="#d682c1" d="M 1037.886719 657.441406 L 1506.4375 657.441406 L 1506.4375 1125.992188 L 1037.886719 1125.992188 Z M 1037.886719 657.441406 " fill-opacity="1" fill-rule="nonzero"/></g><g clip-path="url(#8cf6757bda)"><path fill="#47155b" d="M 1506.4375 657.441406 L 1974.992188 657.441406 L 1974.992188 1125.992188 L 1506.4375 1125.992188 Z M 1506.4375 657.441406 " fill-opacity="1" fill-rule="nonzero"/></g><g clip-path="url(#4aa68706c7)"><path fill="#112179" d="M 1037.886719 1125.992188 L 1506.4375 1125.992188 L 1506.4375 1594.546875 L 1037.886719 1594.546875 Z M 1037.886719 1125.992188 " fill-opacity="1" fill-rule="nonzero"/></g><g clip-path="url(#e4fb7ee9be)"><path fill="#f8f2ea" d="M 1506.4375 1125.992188 L 1974.992188 1125.992188 L 1974.992188 1594.546875 L 1506.4375 1594.546875 Z M 1506.4375 1125.992188 " fill-opacity="1" fill-rule="nonzero"/></g><g clip-path="url(#e551245fc1)"><path fill="#f8f2ea" d="M 1506.4375 188.886719 L 1974.992188 188.886719 L 1974.992188 657.441406 L 1506.4375 657.441406 Z M 1506.4375 188.886719 " fill-opacity="1" fill-rule="nonzero"/></g><g clip-path="url(#084c0e6482)"><path fill="#112179" d="M 100.78125 1125.992188 L 569.332031 1125.992188 L 569.332031 1594.546875 L 100.78125 1594.546875 Z M 100.78125 1125.992188 " fill-opacity="1" fill-rule="nonzero"/></g><g clip-path="url(#bc5486db79)"><path fill="#47155b" d="M 569.332031 657.441406 L 1037.886719 657.441406 L 1037.886719 1125.992188 L 569.332031 1125.992188 Z M 569.332031 657.441406 " fill-opacity="1" fill-rule="nonzero"/></g><g clip-path="url(#78dea3d7f4)"><path fill="#112179" d="M 1037.886719 188.886719 L 1506.4375 188.886719 L 1506.4375 657.441406 L 1037.886719 657.441406 Z M 1037.886719 188.886719 " fill-opacity="1" fill-rule="nonzero"/></g><g clip-path="url(#3d62b37766)"><path fill="#d682c1" d="M 100.78125 657.441406 L 569.332031 657.441406 L 569.332031 1125.992188 L 100.78125 1125.992188 Z M 100.78125 657.441406 " fill-opacity="1" fill-rule="nonzero"/></g><g clip-path="url(#44f197d680)"><path fill="#f8f2ea" d="M 569.332031 188.886719 L 1037.886719 188.886719 L 1037.886719 657.441406 L 569.332031 657.441406 Z M 569.332031 188.886719 " fill-opacity="1" fill-rule="nonzero"/></g><g clip-path="url(#56bd5524cd)"><path fill="#112179" d="M 100.78125 188.886719 L 569.332031 188.886719 L 569.332031 657.441406 L 100.78125 657.441406 Z M 100.78125 188.886719 " fill-opacity="1" fill-rule="nonzero"/></g><g fill="#f8f2ea" fill-opacity="1"><g transform="translate(182.709067, 580.982386)"><g><path d="M 180.96875 -299.640625 L 25.25 -299.640625 L 25.25 0 L 119.515625 0 L 119.515625 -90.484375 L 179.28125 -90.484375 C 247.453125 -90.484375 292.0625 -133.828125 292.0625 -195.265625 C 292.0625 -256.296875 248.296875 -299.640625 180.96875 -299.640625 Z M 119.515625 -162.03125 L 119.515625 -225.15625 L 161.1875 -225.15625 C 185.59375 -225.15625 197.796875 -215.046875 197.796875 -194.015625 C 197.796875 -172.546875 185.59375 -162.03125 161.1875 -162.03125 Z M 119.515625 -162.03125 "/></g></g></g><g fill="#112179" fill-opacity="1"><g transform="translate(652.945514, 580.982386)"><g><path d="M 119.515625 -114.046875 L 257.140625 -114.046875 L 257.140625 -187.703125 L 119.515625 -187.703125 L 119.515625 -221.78125 L 280.28125 -221.78125 L 280.28125 -299.640625 L 25.25 -299.640625 L 25.25 0 L 284.484375 0 L 284.484375 -77.859375 L 119.515625 -77.859375 Z M 119.515625 -114.046875 "/></g></g></g><g fill="#f8f2ea" fill-opacity="1"><g transform="translate(1110.977354, 580.982386)"><g><path d="M 294.171875 -71.546875 C 290.375 -107.734375 276.921875 -128.78125 248.296875 -138.875 C 281.125 -151.921875 299.21875 -177.59375 299.21875 -212.109375 C 299.21875 -264.296875 257.984375 -299.640625 199.90625 -299.640625 L 25.25 -299.640625 L 25.25 0 L 119.515625 0 L 119.515625 -104.796875 L 160.34375 -104.796875 C 186.015625 -104.796875 199.484375 -90.90625 202 -63.125 L 207.890625 0 L 301.328125 0 Z M 119.515625 -171.28125 L 119.515625 -228.09375 L 172.96875 -228.09375 C 193.171875 -228.09375 204.953125 -216.734375 204.953125 -199.90625 C 204.953125 -183.0625 193.171875 -171.28125 172.96875 -171.28125 Z M 119.515625 -171.28125 "/></g></g></g><g fill="#112179" fill-opacity="1"><g transform="translate(1589.975131, 580.982386)"><g><path d="M 151.921875 9.671875 C 235.671875 9.671875 287.859375 -26.9375 287.859375 -93 C 287.859375 -140.140625 261.765625 -173.8125 202.421875 -186.859375 L 139.296875 -200.75 C 122.890625 -204.53125 116.578125 -210.421875 116.578125 -219.265625 C 116.578125 -231.46875 128.78125 -236.9375 147.71875 -236.9375 C 170.015625 -236.9375 179.703125 -229.359375 182.21875 -213.78125 L 273.546875 -213.78125 C 270.1875 -276.078125 228.09375 -306.796875 148.984375 -306.796875 C 58.078125 -306.796875 22.71875 -266.390625 22.71875 -212.53125 C 22.71875 -160.34375 55.546875 -135.9375 103.53125 -125.40625 L 166.234375 -111.53125 C 183.484375 -107.734375 192.75 -101 192.75 -87.953125 C 192.75 -72.8125 180.546875 -65.234375 155.71875 -65.234375 C 126.25 -65.234375 111.9375 -75.75 109.84375 -99.3125 L 15.15625 -99.3125 C 20.625 -27.78125 69.015625 9.671875 151.921875 9.671875 Z M 151.921875 9.671875 "/></g></g></g><g fill="#f8f2ea" fill-opacity="1"><g transform="translate(262.670423, 1049.535408)"><g><path d="M 119.515625 0 L 119.515625 -299.640625 L 25.25 -299.640625 L 25.25 0 Z M 119.515625 0 "/></g></g></g><g fill="#f8f2ea" fill-opacity="1"><g transform="translate(643.33988, 1049.535408)"><g><path d="M 151.921875 9.671875 C 235.671875 9.671875 287.859375 -26.9375 287.859375 -93 C 287.859375 -140.140625 261.765625 -173.8125 202.421875 -186.859375 L 139.296875 -200.75 C 122.890625 -204.53125 116.578125 -210.421875 116.578125 -219.265625 C 116.578125 -231.46875 128.78125 -236.9375 147.71875 -236.9375 C 170.015625 -236.9375 179.703125 -229.359375 182.21875 -213.78125 L 273.546875 -213.78125 C 270.1875 -276.078125 228.09375 -306.796875 148.984375 -306.796875 C 58.078125 -306.796875 22.71875 -266.390625 22.71875 -212.53125 C 22.71875 -160.34375 55.546875 -135.9375 103.53125 -125.40625 L 166.234375 -111.53125 C 183.484375 -107.734375 192.75 -101 192.75 -87.953125 C 192.75 -72.8125 180.546875 -65.234375 155.71875 -65.234375 C 126.25 -65.234375 111.9375 -75.75 109.84375 -99.3125 L 15.15625 -99.3125 C 20.625 -27.78125 69.015625 9.671875 151.921875 9.671875 Z M 151.921875 9.671875 "/></g></g></g><g fill="#f8f2ea" fill-opacity="1"><g transform="translate(1130.472902, 1049.535408)"><g><path d="M 8.421875 -299.640625 L 8.421875 -221.78125 L 95.109375 -221.78125 L 95.109375 0 L 189.375 0 L 189.375 -221.78125 L 275.65625 -221.78125 L 275.65625 -299.640625 Z M 8.421875 -299.640625 "/></g></g></g><g fill="#f8f2ea" fill-opacity="1"><g transform="translate(1599.164036, 1049.535408)"><g><path d="M 119.515625 -114.046875 L 257.140625 -114.046875 L 257.140625 -187.703125 L 119.515625 -187.703125 L 119.515625 -221.78125 L 280.28125 -221.78125 L 280.28125 -299.640625 L 25.25 -299.640625 L 25.25 0 L 284.484375 0 L 284.484375 -77.859375 L 119.515625 -77.859375 Z M 119.515625 -114.046875 "/></g></g></g><g fill="#f8f2ea" fill-opacity="1"><g transform="translate(170.71487, 1518.088432)"><g><path d="M 210.84375 -197.796875 L 210.84375 -142.671875 C 202.84375 -156.546875 194.84375 -170.859375 186.4375 -184.75 L 118.671875 -299.640625 L 25.25 -299.640625 L 25.25 0 L 117.84375 0 L 117.84375 -155.296875 C 126.671875 -139.71875 135.515625 -123.734375 144.765625 -108.15625 L 207.890625 0 L 303.421875 0 L 303.421875 -299.640625 L 210.84375 -299.640625 Z M 210.84375 -197.796875 "/></g></g></g><g fill="#112179" fill-opacity="1"><g transform="translate(632.397816, 1518.088432)"><g><path d="M 168.34375 9.671875 C 247.875 9.671875 305.109375 -38.296875 311.421875 -116.578125 L 217.578125 -116.578125 C 214.203125 -82.0625 198.21875 -65.234375 169.171875 -65.234375 C 134.671875 -65.234375 113.203125 -90.90625 113.203125 -149.40625 C 113.203125 -204.53125 134.25 -231.890625 169.171875 -231.890625 C 195.6875 -231.890625 213.375 -216.734375 217.578125 -186.015625 L 310.578125 -186.015625 C 301.75 -260.921875 245.765625 -306.796875 168.34375 -306.796875 C 81.21875 -306.796875 18.9375 -246.1875 18.9375 -148.5625 C 18.9375 -50.921875 81.21875 9.671875 168.34375 9.671875 Z M 168.34375 9.671875 "/></g></g></g><g fill="#f8f2ea" fill-opacity="1"><g transform="translate(1121.845433, 1518.088432)"><g><path d="M 119.515625 -114.046875 L 257.140625 -114.046875 L 257.140625 -187.703125 L 119.515625 -187.703125 L 119.515625 -221.78125 L 280.28125 -221.78125 L 280.28125 -299.640625 L 25.25 -299.640625 L 25.25 0 L 284.484375 0 L 284.484375 -77.859375 L 119.515625 -77.859375 Z M 119.515625 -114.046875 "/></g></g></g><g clip-path="url(#f5b6884d43)"><g clip-path="url(#48a7f0b199)"><path fill="#112179" d="M 1555.078125 1174.632812 L 1926.351562 1174.632812 L 1926.351562 1545.90625 L 1555.078125 1545.90625 Z M 1555.078125 1174.632812 " fill-opacity="1" fill-rule="nonzero"/></g></g></svg>