<svg xmlns="http://www.w3.org/2000/svg" xmlns:xlink="http://www.w3.org/1999/xlink" width="2500" zoomAndPan="magnify" viewBox="0 0 1874.88 1874.999927" height="2500" preserveAspectRatio="xMidYMid meet" version="1.0"><defs><clipPath id="d24a847866"><path d="M 0 1406.21875 L 468.71875 1406.21875 L 468.71875 1874.9375 L 0 1874.9375 Z M 0 1406.21875 " clip-rule="nonzero"/></clipPath><clipPath id="4908737784"><path d="M 468.71875 937.5 L 937.441406 937.5 L 937.441406 1406.21875 L 468.71875 1406.21875 Z M 468.71875 937.5 " clip-rule="nonzero"/></clipPath><clipPath id="2c85dc0696"><path d="M 937.441406 468.78125 L 1406.160156 468.78125 L 1406.160156 937.5 L 937.441406 937.5 Z M 937.441406 468.78125 " clip-rule="nonzero"/></clipPath><clipPath id="b13ab84ab6"><path d="M 1406.160156 468.78125 L 1874.761719 468.78125 L 1874.761719 937.5 L 1406.160156 937.5 Z M 1406.160156 468.78125 " clip-rule="nonzero"/></clipPath><clipPath id="05723360dd"><path d="M 937.441406 937.5 L 1406.160156 937.5 L 1406.160156 1406.21875 L 937.441406 1406.21875 Z M 937.441406 937.5 " clip-rule="nonzero"/></clipPath><clipPath id="41b23c70c0"><path d="M 1406.160156 937.5 L 1874.761719 937.5 L 1874.761719 1406.21875 L 1406.160156 1406.21875 Z M 1406.160156 937.5 " clip-rule="nonzero"/></clipPath><clipPath id="80b8adea28"><path d="M 1406.160156 1406.21875 L 1874.761719 1406.21875 L 1874.761719 1874.9375 L 1406.160156 1874.9375 Z M 1406.160156 1406.21875 " clip-rule="nonzero"/></clipPath><clipPath id="b115c3475f"><path d="M 937.441406 1406.21875 L 1406.160156 1406.21875 L 1406.160156 1874.9375 L 937.441406 1874.9375 Z M 937.441406 1406.21875 " clip-rule="nonzero"/></clipPath><clipPath id="a01b800733"><path d="M 468.71875 1406.21875 L 937.441406 1406.21875 L 937.441406 1874.9375 L 468.71875 1874.9375 Z M 468.71875 1406.21875 " clip-rule="nonzero"/></clipPath><clipPath id="72e974081e"><path d="M 1406.160156 0.0585938 L 1874.761719 0.0585938 L 1874.761719 468.78125 L 1406.160156 468.78125 Z M 1406.160156 0.0585938 " clip-rule="nonzero"/></clipPath><clipPath id="92140a3011"><path d="M 670.0625 670.125 L 1673.535156 670.125 L 1673.535156 1673.597656 L 670.0625 1673.597656 Z M 670.0625 670.125 " clip-rule="nonzero"/></clipPath><clipPath id="85e9a7cfb5"><path d="M 1171.800781 670.125 L 1331.449219 1012.207031 L 1673.535156 1171.859375 L 1331.449219 1331.511719 L 1171.800781 1673.597656 L 1012.148438 1331.511719 L 670.0625 1171.859375 L 1012.148438 1012.207031 Z M 1171.800781 670.125 " clip-rule="nonzero"/></clipPath><clipPath id="e43f5aa137"><path d="M 0 937.5 L 468.71875 937.5 L 468.71875 1406.21875 L 0 1406.21875 Z M 0 937.5 " clip-rule="nonzero"/></clipPath><clipPath id="a3479bef72"><path d="M 468.71875 468.78125 L 937.441406 468.78125 L 937.441406 937.5 L 468.71875 937.5 Z M 468.71875 468.78125 " clip-rule="nonzero"/></clipPath><clipPath id="4b47e45290"><path d="M 937.441406 0.0585938 L 1406.160156 0.0585938 L 1406.160156 468.78125 L 937.441406 468.78125 Z M 937.441406 0.0585938 " clip-rule="nonzero"/></clipPath><clipPath id="1e24562f7f"><path d="M 0 468.78125 L 468.71875 468.78125 L 468.71875 937.5 L 0 937.5 Z M 0 468.78125 " clip-rule="nonzero"/></clipPath><clipPath id="aaf3225cd2"><path d="M 468.71875 0.0585938 L 937.441406 0.0585938 L 937.441406 468.78125 L 468.71875 468.78125 Z M 468.71875 0.0585938 " clip-rule="nonzero"/></clipPath><clipPath id="444f76bcbb"><path d="M 0 0.0585938 L 468.71875 0.0585938 L 468.71875 468.78125 L 0 468.78125 Z M 0 0.0585938 " clip-rule="nonzero"/></clipPath><clipPath id="39b00fc244"><path d="M 329.964844 330.023438 L 1076.195312 330.023438 L 1076.195312 1076.257812 L 329.964844 1076.257812 Z M 329.964844 330.023438 " clip-rule="nonzero"/></clipPath><clipPath id="28d4fac506"><path d="M 703.078125 330.023438 L 821.804688 584.414062 L 1076.195312 703.140625 L 821.804688 821.863281 L 703.078125 1076.257812 L 584.355469 821.863281 L 329.964844 703.140625 L 584.355469 584.414062 Z M 703.078125 330.023438 " clip-rule="nonzero"/></clipPath></defs><g clip-path="url(#d24a847866)"><path fill="#112179" d="M 0 1406.21875 L 468.71875 1406.21875 L 468.71875 1874.941406 L 0 1874.941406 Z M 0 1406.21875 " fill-opacity="1" fill-rule="nonzero"/></g><g clip-path="url(#4908737784)"><path fill="#47155b" d="M 468.71875 937.5 L 937.441406 937.5 L 937.441406 1406.21875 L 468.71875 1406.21875 Z M 468.71875 937.5 " fill-opacity="1" fill-rule="nonzero"/></g><g clip-path="url(#2c85dc0696)"><path fill="#f8f2ea" d="M 937.441406 468.78125 L 1406.160156 468.78125 L 1406.160156 937.5 L 937.441406 937.5 Z M 937.441406 468.78125 " fill-opacity="1" fill-rule="nonzero"/></g><g clip-path="url(#b13ab84ab6)"><path fill="#112179" d="M 1406.160156 468.78125 L 1874.878906 468.78125 L 1874.878906 937.5 L 1406.160156 937.5 Z M 1406.160156 468.78125 " fill-opacity="1" fill-rule="nonzero"/></g><g clip-path="url(#05723360dd)"><path fill="#d682c1" d="M 937.441406 937.5 L 1406.160156 937.5 L 1406.160156 1406.21875 L 937.441406 1406.21875 Z M 937.441406 937.5 " fill-opacity="1" fill-rule="nonzero"/></g><g clip-path="url(#41b23c70c0)"><path fill="#47155b" d="M 1406.160156 937.5 L 1874.878906 937.5 L 1874.878906 1406.21875 L 1406.160156 1406.21875 Z M 1406.160156 937.5 " fill-opacity="1" fill-rule="nonzero"/></g><g clip-path="url(#80b8adea28)"><path fill="#f8f2ea" d="M 1406.160156 1406.21875 L 1874.878906 1406.21875 L 1874.878906 1874.941406 L 1406.160156 1874.941406 Z M 1406.160156 1406.21875 " fill-opacity="1" fill-rule="nonzero"/></g><g clip-path="url(#b115c3475f)"><path fill="#112179" d="M 937.441406 1406.21875 L 1406.160156 1406.21875 L 1406.160156 1874.941406 L 937.441406 1874.941406 Z M 937.441406 1406.21875 " fill-opacity="1" fill-rule="nonzero"/></g><g clip-path="url(#a01b800733)"><path fill="#f8f2ea" d="M 468.71875 1406.21875 L 937.441406 1406.21875 L 937.441406 1874.941406 L 468.71875 1874.941406 Z M 468.71875 1406.21875 " fill-opacity="1" fill-rule="nonzero"/></g><g clip-path="url(#72e974081e)"><path fill="#d682c1" d="M 1406.160156 0.0585938 L 1874.878906 0.0585938 L 1874.878906 468.78125 L 1406.160156 468.78125 Z M 1406.160156 0.0585938 " fill-opacity="1" fill-rule="nonzero"/></g><g clip-path="url(#92140a3011)"><g clip-path="url(#85e9a7cfb5)"><path fill="#d682c1" d="M 670.0625 670.125 L 1673.535156 670.125 L 1673.535156 1673.597656 L 670.0625 1673.597656 Z M 670.0625 670.125 " fill-opacity="1" fill-rule="nonzero"/></g></g><g clip-path="url(#e43f5aa137)"><path fill="#d682c1" d="M 0 937.5 L 468.71875 937.5 L 468.71875 1406.21875 L 0 1406.21875 Z M 0 937.5 " fill-opacity="1" fill-rule="nonzero"/></g><g clip-path="url(#a3479bef72)"><path fill="#112179" d="M 468.71875 468.78125 L 937.441406 468.78125 L 937.441406 937.5 L 468.71875 937.5 Z M 468.71875 468.78125 " fill-opacity="1" fill-rule="nonzero"/></g><g clip-path="url(#4b47e45290)"><path fill="#47155b" d="M 937.441406 0.0585938 L 1406.160156 0.0585938 L 1406.160156 468.78125 L 937.441406 468.78125 Z M 937.441406 0.0585938 " fill-opacity="1" fill-rule="nonzero"/></g><g clip-path="url(#1e24562f7f)"><path fill="#f8f2ea" d="M 0 468.78125 L 468.71875 468.78125 L 468.71875 937.5 L 0 937.5 Z M 0 468.78125 " fill-opacity="1" fill-rule="nonzero"/></g><g clip-path="url(#aaf3225cd2)"><path fill="#d682c1" d="M 468.71875 0.0585938 L 937.441406 0.0585938 L 937.441406 468.78125 L 468.71875 468.78125 Z M 468.71875 0.0585938 " fill-opacity="1" fill-rule="nonzero"/></g><g clip-path="url(#444f76bcbb)"><path fill="#47155b" d="M 0 0.0585938 L 468.71875 0.0585938 L 468.71875 468.78125 L 0 468.78125 Z M 0 0.0585938 " fill-opacity="1" fill-rule="nonzero"/></g><g clip-path="url(#39b00fc244)"><g clip-path="url(#28d4fac506)"><path fill="#112179" d="M 329.964844 330.023438 L 1076.195312 330.023438 L 1076.195312 1076.257812 L 329.964844 1076.257812 Z M 329.964844 330.023438 " fill-opacity="1" fill-rule="nonzero"/></g></g></svg>