<svg xmlns="http://www.w3.org/2000/svg" xmlns:xlink="http://www.w3.org/1999/xlink" width="2500" zoomAndPan="magnify" viewBox="0 0 1874.88 1874.999927" height="2500" preserveAspectRatio="xMidYMid meet" version="1.0"><defs><clipPath id="2af9794462"><path d="M 0 0.0585938 L 1874.761719 0.0585938 L 1874.761719 1874.9375 L 0 1874.9375 Z M 0 0.0585938 " clip-rule="nonzero"/></clipPath><clipPath id="b7b9e6c8cb"><path d="M 0 0.730469 L 937.105469 0.730469 L 937.105469 937.835938 L 0 937.835938 Z M 0 0.730469 " clip-rule="nonzero"/></clipPath><clipPath id="1b4eabccec"><path d="M 937.777344 0.730469 L 1874.761719 0.730469 L 1874.761719 937.835938 L 937.777344 937.835938 Z M 937.777344 0.730469 " clip-rule="nonzero"/></clipPath><clipPath id="15cc700fda"><path d="M 0.671875 937.835938 L 937.777344 937.835938 L 937.777344 1874.9375 L 0.671875 1874.9375 Z M 0.671875 937.835938 " clip-rule="nonzero"/></clipPath><clipPath id="f6b5944f4c"><path d="M 937.777344 937.835938 L 1874.761719 937.835938 L 1874.761719 1874.9375 L 937.777344 1874.9375 Z M 937.777344 937.835938 " clip-rule="nonzero"/></clipPath><clipPath id="62abf2b70b"><path d="M 1063.675781 1064.40625 L 1747.636719 1064.40625 L 1747.636719 1748.367188 L 1063.675781 1748.367188 Z M 1063.675781 1064.40625 " clip-rule="nonzero"/></clipPath><clipPath id="0d5b922b79"><path d="M 1405.65625 1064.40625 L 1514.472656 1297.570312 L 1747.636719 1406.386719 L 1514.472656 1515.203125 L 1405.65625 1748.367188 L 1296.839844 1515.203125 L 1063.675781 1406.386719 L 1296.839844 1297.570312 Z M 1405.65625 1064.40625 " clip-rule="nonzero"/></clipPath><clipPath id="3c1bbd3c2b"><path d="M 126.570312 127.300781 L 810.535156 127.300781 L 810.535156 811.265625 L 126.570312 811.265625 Z M 126.570312 127.300781 " clip-rule="nonzero"/></clipPath><clipPath id="9c776d1d1d"><path d="M 468.550781 127.300781 L 577.371094 360.464844 L 810.535156 469.285156 L 577.371094 578.101562 L 468.550781 811.265625 L 359.734375 578.101562 L 126.570312 469.285156 L 359.734375 360.464844 Z M 468.550781 127.300781 " clip-rule="nonzero"/></clipPath><clipPath id="f86e9b275b"><path d="M 126.570312 1064.40625 L 810.535156 1064.40625 L 810.535156 1748.367188 L 126.570312 1748.367188 Z M 126.570312 1064.40625 " clip-rule="nonzero"/></clipPath><clipPath id="b41faf9b58"><path d="M 468.550781 1064.40625 L 577.371094 1297.570312 L 810.535156 1406.386719 L 577.371094 1515.203125 L 468.550781 1748.367188 L 359.734375 1515.203125 L 126.570312 1406.386719 L 359.734375 1297.570312 Z M 468.550781 1064.40625 " clip-rule="nonzero"/></clipPath><clipPath id="6973136b08"><path d="M 1064.347656 127.300781 L 1748.308594 127.300781 L 1748.308594 811.265625 L 1064.347656 811.265625 Z M 1064.347656 127.300781 " clip-rule="nonzero"/></clipPath><clipPath id="97734caf48"><path d="M 1406.328125 127.300781 L 1515.144531 360.464844 L 1748.308594 469.285156 L 1515.144531 578.101562 L 1406.328125 811.265625 L 1297.511719 578.101562 L 1064.347656 469.285156 L 1297.511719 360.464844 Z M 1406.328125 127.300781 " clip-rule="nonzero"/></clipPath></defs><g clip-path="url(#2af9794462)"><path fill="#ffffff" d="M 0 0.0585938 L 1874.878906 0.0585938 L 1874.878906 1874.941406 L 0 1874.941406 Z M 0 0.0585938 " fill-opacity="1" fill-rule="nonzero"/><path fill="#2f333b" d="M 0 0.0585938 L 1874.878906 0.0585938 L 1874.878906 1874.941406 L 0 1874.941406 Z M 0 0.0585938 " fill-opacity="1" fill-rule="nonzero"/></g><g clip-path="url(#b7b9e6c8cb)"><path fill="#d682c1" d="M 0 0.730469 L 937.105469 0.730469 L 937.105469 937.835938 L 0 937.835938 Z M 0 0.730469 " fill-opacity="1" fill-rule="nonzero"/></g><g clip-path="url(#1b4eabccec)"><path fill="#112179" d="M 937.777344 0.730469 L 1874.878906 0.730469 L 1874.878906 937.835938 L 937.777344 937.835938 Z M 937.777344 0.730469 " fill-opacity="1" fill-rule="nonzero"/></g><g clip-path="url(#15cc700fda)"><path fill="#47155b" d="M 0.671875 937.835938 L 937.777344 937.835938 L 937.777344 1874.941406 L 0.671875 1874.941406 Z M 0.671875 937.835938 " fill-opacity="1" fill-rule="nonzero"/></g><g clip-path="url(#f6b5944f4c)"><path fill="#f8f2ea" d="M 937.777344 937.835938 L 1874.878906 937.835938 L 1874.878906 1874.941406 L 937.777344 1874.941406 Z M 937.777344 937.835938 " fill-opacity="1" fill-rule="nonzero"/></g><g clip-path="url(#62abf2b70b)"><g clip-path="url(#0d5b922b79)"><path fill="#112179" d="M 1063.675781 1064.40625 L 1747.636719 1064.40625 L 1747.636719 1748.367188 L 1063.675781 1748.367188 Z M 1063.675781 1064.40625 " fill-opacity="1" fill-rule="nonzero"/></g></g><g clip-path="url(#3c1bbd3c2b)"><g clip-path="url(#9c776d1d1d)"><path fill="#47155b" d="M 126.570312 127.300781 L 810.535156 127.300781 L 810.535156 811.265625 L 126.570312 811.265625 Z M 126.570312 127.300781 " fill-opacity="1" fill-rule="nonzero"/></g></g><g clip-path="url(#f86e9b275b)"><g clip-path="url(#b41faf9b58)"><path fill="#d682c1" d="M 126.570312 1064.40625 L 810.535156 1064.40625 L 810.535156 1748.367188 L 126.570312 1748.367188 Z M 126.570312 1064.40625 " fill-opacity="1" fill-rule="nonzero"/></g></g><g clip-path="url(#6973136b08)"><g clip-path="url(#97734caf48)"><path fill="#f8f2ea" d="M 1064.347656 127.300781 L 1748.308594 127.300781 L 1748.308594 811.265625 L 1064.347656 811.265625 Z M 1064.347656 127.300781 " fill-opacity="1" fill-rule="nonzero"/></g></g></svg>