<svg xmlns="http://www.w3.org/2000/svg" xmlns:xlink="http://www.w3.org/1999/xlink" width="2500" zoomAndPan="magnify" viewBox="0 0 1874.88 1874.999927" height="2500" preserveAspectRatio="xMidYMid meet" version="1.0"><defs><clipPath id="78cbdcf1e9"><path d="M 937.273438 443.867188 L 1405.910156 443.867188 L 1405.910156 912.503906 L 937.273438 912.503906 Z M 937.273438 443.867188 " clip-rule="nonzero"/></clipPath><clipPath id="da1134b437"><path d="M 1406.242188 443.867188 L 1874.761719 443.867188 L 1874.761719 912.503906 L 1406.242188 912.503906 Z M 1406.242188 443.867188 " clip-rule="nonzero"/></clipPath><clipPath id="be35c43a59"><path d="M 937.609375 912.503906 L 1406.242188 912.503906 L 1406.242188 1381.140625 L 937.609375 1381.140625 Z M 937.609375 912.503906 " clip-rule="nonzero"/></clipPath><clipPath id="03b0a611d5"><path d="M 1406.242188 912.503906 L 1874.761719 912.503906 L 1874.761719 1381.140625 L 1406.242188 1381.140625 Z M 1406.242188 912.503906 " clip-rule="nonzero"/></clipPath><clipPath id="8f7134c3c9"><path d="M 1469.207031 975.800781 L 1811.246094 975.800781 L 1811.246094 1317.84375 L 1469.207031 1317.84375 Z M 1469.207031 975.800781 " clip-rule="nonzero"/></clipPath><clipPath id="f2a7b66a71"><path d="M 1640.226562 975.800781 L 1694.644531 1092.402344 L 1811.246094 1146.820312 L 1694.644531 1201.238281 L 1640.226562 1317.84375 L 1585.808594 1201.238281 L 1469.207031 1146.820312 L 1585.808594 1092.402344 Z M 1640.226562 975.800781 " clip-rule="nonzero"/></clipPath><clipPath id="84d1777ff0"><path d="M 468.960938 912.492188 L 937.597656 912.492188 L 937.597656 1381.128906 L 468.960938 1381.128906 Z M 468.960938 912.492188 " clip-rule="nonzero"/></clipPath><clipPath id="7308609548"><path d="M 0 912.492188 L 468.625 912.492188 L 468.625 1381.128906 L 0 1381.128906 Z M 0 912.492188 " clip-rule="nonzero"/></clipPath><clipPath id="7f7062b9eb"><path d="M 468.625 443.855469 L 937.261719 443.855469 L 937.261719 912.492188 L 468.625 912.492188 Z M 468.625 443.855469 " clip-rule="nonzero"/></clipPath><clipPath id="9ca2f057d4"><path d="M 0 443.855469 L 468.625 443.855469 L 468.625 912.492188 L 0 912.492188 Z M 0 443.855469 " clip-rule="nonzero"/></clipPath><clipPath id="592ff888a1"><path d="M 63.625 507.160156 L 405.667969 507.160156 L 405.667969 849.199219 L 63.625 849.199219 Z M 63.625 507.160156 " clip-rule="nonzero"/></clipPath><clipPath id="f110bc9699"><path d="M 234.648438 849.199219 L 180.230469 732.597656 L 63.625 678.179688 L 180.230469 623.761719 L 234.648438 507.160156 L 289.066406 623.761719 L 405.667969 678.179688 L 289.066406 732.597656 Z M 234.648438 849.199219 " clip-rule="nonzero"/></clipPath></defs><g clip-path="url(#78cbdcf1e9)"><path fill="#d682c1" d="M 937.273438 443.867188 L 1405.910156 443.867188 L 1405.910156 912.503906 L 937.273438 912.503906 Z M 937.273438 443.867188 " fill-opacity="1" fill-rule="nonzero"/></g><g clip-path="url(#da1134b437)"><path fill="#112179" d="M 1406.242188 443.867188 L 1874.878906 443.867188 L 1874.878906 912.503906 L 1406.242188 912.503906 Z M 1406.242188 443.867188 " fill-opacity="1" fill-rule="nonzero"/></g><g clip-path="url(#be35c43a59)"><path fill="#47155b" d="M 937.609375 912.503906 L 1406.242188 912.503906 L 1406.242188 1381.140625 L 937.609375 1381.140625 Z M 937.609375 912.503906 " fill-opacity="1" fill-rule="nonzero"/></g><g clip-path="url(#03b0a611d5)"><path fill="#f8f2ea" d="M 1406.242188 912.503906 L 1874.878906 912.503906 L 1874.878906 1381.140625 L 1406.242188 1381.140625 Z M 1406.242188 912.503906 " fill-opacity="1" fill-rule="nonzero"/></g><g clip-path="url(#8f7134c3c9)"><g clip-path="url(#f2a7b66a71)"><path fill="#112179" d="M 1469.207031 975.800781 L 1811.246094 975.800781 L 1811.246094 1317.84375 L 1469.207031 1317.84375 Z M 1469.207031 975.800781 " fill-opacity="1" fill-rule="nonzero"/></g></g><g clip-path="url(#84d1777ff0)"><path fill="#d682c1" d="M 937.597656 1381.128906 L 468.960938 1381.128906 L 468.960938 912.492188 L 937.597656 912.492188 Z M 937.597656 1381.128906 " fill-opacity="1" fill-rule="nonzero"/></g><g clip-path="url(#7308609548)"><path fill="#112179" d="M 468.625 1381.128906 L -0.0117188 1381.128906 L -0.0117188 912.492188 L 468.625 912.492188 Z M 468.625 1381.128906 " fill-opacity="1" fill-rule="nonzero"/></g><g clip-path="url(#7f7062b9eb)"><path fill="#47155b" d="M 937.261719 912.492188 L 468.625 912.492188 L 468.625 443.855469 L 937.261719 443.855469 Z M 937.261719 912.492188 " fill-opacity="1" fill-rule="nonzero"/></g><g clip-path="url(#9ca2f057d4)"><path fill="#f8f2ea" d="M 468.625 912.492188 L -0.0117188 912.492188 L -0.0117188 443.855469 L 468.625 443.855469 Z M 468.625 912.492188 " fill-opacity="1" fill-rule="nonzero"/></g><g clip-path="url(#592ff888a1)"><g clip-path="url(#f110bc9699)"><path fill="#112179" d="M 405.667969 849.199219 L 63.625 849.199219 L 63.625 507.160156 L 405.667969 507.160156 Z M 405.667969 849.199219 " fill-opacity="1" fill-rule="nonzero"/></g></g></svg>