<svg xmlns="http://www.w3.org/2000/svg" xmlns:xlink="http://www.w3.org/1999/xlink" width="2540" zoomAndPan="magnify" viewBox="0 0 1904.88 282.749989" height="377" preserveAspectRatio="xMidYMid meet" version="1.0"><defs><g/><clipPath id="366426cb08"><path d="M 498.921875 62.964844 L 655.109375 62.964844 L 655.109375 219.152344 L 498.921875 219.152344 Z M 498.921875 62.964844 " clip-rule="nonzero"/></clipPath><clipPath id="8a369e2979"><path d="M 342.734375 62.964844 L 498.921875 62.964844 L 498.921875 219.152344 L 342.734375 219.152344 Z M 342.734375 62.964844 " clip-rule="nonzero"/></clipPath><clipPath id="d7a9a86ae4"><path d="M 186.546875 62.964844 L 342.734375 62.964844 L 342.734375 219.152344 L 186.546875 219.152344 Z M 186.546875 62.964844 " clip-rule="nonzero"/></clipPath><clipPath id="f8cedd7237"><path d="M 30.355469 62.964844 L 186.546875 62.964844 L 186.546875 219.152344 L 30.355469 219.152344 Z M 30.355469 62.964844 " clip-rule="nonzero"/></clipPath><clipPath id="6efed32e1e"><path d="M 967.484375 62.964844 L 1123.675781 62.964844 L 1123.675781 219.152344 L 967.484375 219.152344 Z M 967.484375 62.964844 " clip-rule="nonzero"/></clipPath><clipPath id="47a9350405"><path d="M 1123.675781 62.964844 L 1279.863281 62.964844 L 1279.863281 219.152344 L 1123.675781 219.152344 Z M 1123.675781 62.964844 " clip-rule="nonzero"/></clipPath><clipPath id="bc3ba49a38"><path d="M 811.296875 62.964844 L 967.484375 62.964844 L 967.484375 219.152344 L 811.296875 219.152344 Z M 811.296875 62.964844 " clip-rule="nonzero"/></clipPath><clipPath id="29b9af2028"><path d="M 655.109375 62.964844 L 811.296875 62.964844 L 811.296875 219.152344 L 655.109375 219.152344 Z M 655.109375 62.964844 " clip-rule="nonzero"/></clipPath><clipPath id="7cdebddd6a"><path d="M 1435.136719 62.964844 L 1591.324219 62.964844 L 1591.324219 219.152344 L 1435.136719 219.152344 Z M 1435.136719 62.964844 " clip-rule="nonzero"/></clipPath><clipPath id="42d15da316"><path d="M 1591.324219 62.964844 L 1747.511719 62.964844 L 1747.511719 219.152344 L 1591.324219 219.152344 Z M 1591.324219 62.964844 " clip-rule="nonzero"/></clipPath><clipPath id="a1e9587b12"><path d="M 1747.511719 62.964844 L 1903.699219 62.964844 L 1903.699219 219.152344 L 1747.511719 219.152344 Z M 1747.511719 62.964844 " clip-rule="nonzero"/></clipPath><clipPath id="1954defd98"><path d="M 1278.949219 62.964844 L 1435.136719 62.964844 L 1435.136719 219.152344 L 1278.949219 219.152344 Z M 1278.949219 62.964844 " clip-rule="nonzero"/></clipPath><clipPath id="8268abad40"><path d="M 1763.726562 79.175781 L 1887.488281 79.175781 L 1887.488281 202.9375 L 1763.726562 202.9375 Z M 1763.726562 79.175781 " clip-rule="nonzero"/></clipPath><clipPath id="a00be078be"><path d="M 1825.605469 79.175781 L 1845.296875 121.367188 L 1887.488281 141.058594 L 1845.296875 160.75 L 1825.605469 202.9375 L 1805.917969 160.75 L 1763.726562 141.058594 L 1805.917969 121.367188 Z M 1825.605469 79.175781 " clip-rule="nonzero"/></clipPath></defs><g clip-path="url(#366426cb08)"><path fill="#d682c1" d="M 498.921875 62.964844 L 655.109375 62.964844 L 655.109375 219.152344 L 498.921875 219.152344 Z M 498.921875 62.964844 " fill-opacity="1" fill-rule="nonzero"/></g><g clip-path="url(#8a369e2979)"><path fill="#47155b" d="M 342.734375 62.964844 L 498.921875 62.964844 L 498.921875 219.152344 L 342.734375 219.152344 Z M 342.734375 62.964844 " fill-opacity="1" fill-rule="nonzero"/></g><g clip-path="url(#d7a9a86ae4)"><path fill="#f8f2ea" d="M 186.546875 62.964844 L 342.734375 62.964844 L 342.734375 219.152344 L 186.546875 219.152344 Z M 186.546875 62.964844 " fill-opacity="1" fill-rule="nonzero"/></g><g clip-path="url(#f8cedd7237)"><path fill="#112179" d="M 30.355469 62.964844 L 186.546875 62.964844 L 186.546875 219.152344 L 30.355469 219.152344 Z M 30.355469 62.964844 " fill-opacity="1" fill-rule="nonzero"/></g><g fill="#f8f2ea" fill-opacity="1"><g transform="translate(57.667618, 193.665421)"><g><path d="M 60.328125 -99.875 L 8.421875 -99.875 L 8.421875 0 L 39.84375 0 L 39.84375 -30.15625 L 59.765625 -30.15625 C 82.484375 -30.15625 97.359375 -44.609375 97.359375 -65.09375 C 97.359375 -85.4375 82.765625 -99.875 60.328125 -99.875 Z M 39.84375 -54.015625 L 39.84375 -75.046875 L 53.734375 -75.046875 C 61.859375 -75.046875 65.9375 -71.6875 65.9375 -64.671875 C 65.9375 -57.515625 61.859375 -54.015625 53.734375 -54.015625 Z M 39.84375 -54.015625 "/></g></g></g><g fill="#112179" fill-opacity="1"><g transform="translate(214.416858, 193.665421)"><g><path d="M 39.84375 -38.015625 L 85.71875 -38.015625 L 85.71875 -62.5625 L 39.84375 -62.5625 L 39.84375 -73.921875 L 93.421875 -73.921875 L 93.421875 -99.875 L 8.421875 -99.875 L 8.421875 0 L 94.828125 0 L 94.828125 -25.953125 L 39.84375 -25.953125 Z M 39.84375 -38.015625 "/></g></g></g><g fill="#f8f2ea" fill-opacity="1"><g transform="translate(367.097748, 193.665421)"><g><path d="M 98.0625 -23.84375 C 96.796875 -35.90625 92.3125 -42.921875 82.765625 -46.296875 C 93.703125 -50.640625 99.734375 -59.203125 99.734375 -70.703125 C 99.734375 -88.09375 86 -99.875 66.640625 -99.875 L 8.421875 -99.875 L 8.421875 0 L 39.84375 0 L 39.84375 -34.9375 L 53.453125 -34.9375 C 62 -34.9375 66.5 -30.296875 67.328125 -21.046875 L 69.296875 0 L 100.4375 0 Z M 39.84375 -57.09375 L 39.84375 -76.03125 L 57.65625 -76.03125 C 64.390625 -76.03125 68.3125 -72.25 68.3125 -66.640625 C 68.3125 -61.015625 64.390625 -57.09375 57.65625 -57.09375 Z M 39.84375 -57.09375 "/></g></g></g><g fill="#f8f2ea" fill-opacity="1"><g transform="translate(526.512437, 193.665421)"><g><path d="M 50.640625 3.21875 C 78.5625 3.21875 95.953125 -8.984375 95.953125 -31 C 95.953125 -46.71875 87.25 -57.9375 67.46875 -62.28125 L 46.4375 -66.921875 C 40.96875 -68.171875 38.859375 -70.140625 38.859375 -73.09375 C 38.859375 -77.15625 42.921875 -78.984375 49.234375 -78.984375 C 56.671875 -78.984375 59.90625 -76.453125 60.734375 -71.265625 L 91.1875 -71.265625 C 90.0625 -92.03125 76.03125 -102.265625 49.65625 -102.265625 C 19.359375 -102.265625 7.578125 -88.796875 7.578125 -70.84375 C 7.578125 -53.453125 18.515625 -45.3125 34.515625 -41.796875 L 55.40625 -37.171875 C 61.15625 -35.90625 64.25 -33.671875 64.25 -29.3125 C 64.25 -24.265625 60.1875 -21.75 51.90625 -21.75 C 42.078125 -21.75 37.3125 -25.25 36.609375 -33.109375 L 5.046875 -33.109375 C 6.875 -9.265625 23 3.21875 50.640625 3.21875 Z M 50.640625 3.21875 "/></g></g></g><g clip-path="url(#6efed32e1e)"><path fill="#47155b" d="M 967.484375 62.964844 L 1123.671875 62.964844 L 1123.671875 219.152344 L 967.484375 219.152344 Z M 967.484375 62.964844 " fill-opacity="1" fill-rule="nonzero"/></g><g clip-path="url(#47a9350405)"><path fill="#d682c1" d="M 1123.675781 62.964844 L 1279.863281 62.964844 L 1279.863281 219.152344 L 1123.675781 219.152344 Z M 1123.675781 62.964844 " fill-opacity="1" fill-rule="nonzero"/></g><g clip-path="url(#bc3ba49a38)"><path fill="#f8f2ea" d="M 811.296875 62.964844 L 967.484375 62.964844 L 967.484375 219.152344 L 811.296875 219.152344 Z M 811.296875 62.964844 " fill-opacity="1" fill-rule="nonzero"/></g><g clip-path="url(#29b9af2028)"><path fill="#112179" d="M 655.109375 62.964844 L 811.296875 62.964844 L 811.296875 219.152344 L 655.109375 219.152344 Z M 655.109375 62.964844 " fill-opacity="1" fill-rule="nonzero"/></g><g fill="#f8f2ea" fill-opacity="1"><g transform="translate(709.074382, 193.665421)"><g><path d="M 39.84375 0 L 39.84375 -99.875 L 8.421875 -99.875 L 8.421875 0 Z M 39.84375 0 "/></g></g></g><g fill="#112179" fill-opacity="1"><g transform="translate(835.967224, 193.665421)"><g><path d="M 50.640625 3.21875 C 78.5625 3.21875 95.953125 -8.984375 95.953125 -31 C 95.953125 -46.71875 87.25 -57.9375 67.46875 -62.28125 L 46.4375 -66.921875 C 40.96875 -68.171875 38.859375 -70.140625 38.859375 -73.09375 C 38.859375 -77.15625 42.921875 -78.984375 49.234375 -78.984375 C 56.671875 -78.984375 59.90625 -76.453125 60.734375 -71.265625 L 91.1875 -71.265625 C 90.0625 -92.03125 76.03125 -102.265625 49.65625 -102.265625 C 19.359375 -102.265625 7.578125 -88.796875 7.578125 -70.84375 C 7.578125 -53.453125 18.515625 -45.3125 34.515625 -41.796875 L 55.40625 -37.171875 C 61.15625 -35.90625 64.25 -33.671875 64.25 -29.3125 C 64.25 -24.265625 60.1875 -21.75 51.90625 -21.75 C 42.078125 -21.75 37.3125 -25.25 36.609375 -33.109375 L 5.046875 -33.109375 C 6.875 -9.265625 23 3.21875 50.640625 3.21875 Z M 50.640625 3.21875 "/></g></g></g><g fill="#f8f2ea" fill-opacity="1"><g transform="translate(998.233012, 193.665421)"><g><path d="M 2.8125 -99.875 L 2.8125 -73.921875 L 31.703125 -73.921875 L 31.703125 0 L 63.125 0 L 63.125 -73.921875 L 91.890625 -73.921875 L 91.890625 -99.875 Z M 2.8125 -99.875 "/></g></g></g><g fill="#f8f2ea" fill-opacity="1"><g transform="translate(1151.751406, 193.665421)"><g><path d="M 39.84375 -38.015625 L 85.71875 -38.015625 L 85.71875 -62.5625 L 39.84375 -62.5625 L 39.84375 -73.921875 L 93.421875 -73.921875 L 93.421875 -99.875 L 8.421875 -99.875 L 8.421875 0 L 94.828125 0 L 94.828125 -25.953125 L 39.84375 -25.953125 Z M 39.84375 -38.015625 "/></g></g></g><g clip-path="url(#7cdebddd6a)"><path fill="#f8f2ea" d="M 1435.136719 62.964844 L 1591.324219 62.964844 L 1591.324219 219.152344 L 1435.136719 219.152344 Z M 1435.136719 62.964844 " fill-opacity="1" fill-rule="nonzero"/></g><g clip-path="url(#42d15da316)"><path fill="#47155b" d="M 1591.324219 62.964844 L 1747.511719 62.964844 L 1747.511719 219.152344 L 1591.324219 219.152344 Z M 1591.324219 62.964844 " fill-opacity="1" fill-rule="nonzero"/></g><g clip-path="url(#a1e9587b12)"><path fill="#d682c1" d="M 1747.511719 62.964844 L 1903.699219 62.964844 L 1903.699219 219.152344 L 1747.511719 219.152344 Z M 1747.511719 62.964844 " fill-opacity="1" fill-rule="nonzero"/></g><g clip-path="url(#1954defd98)"><path fill="#112179" d="M 1278.949219 62.964844 L 1435.136719 62.964844 L 1435.136719 219.152344 L 1278.949219 219.152344 Z M 1278.949219 62.964844 " fill-opacity="1" fill-rule="nonzero"/></g><g fill="#f8f2ea" fill-opacity="1"><g transform="translate(1302.260629, 193.665421)"><g><path d="M 70.28125 -65.9375 L 70.28125 -47.5625 C 67.609375 -52.1875 64.953125 -56.953125 62.140625 -61.578125 L 39.5625 -99.875 L 8.421875 -99.875 L 8.421875 0 L 39.28125 0 L 39.28125 -51.765625 C 42.21875 -46.578125 45.171875 -41.25 48.25 -36.046875 L 69.296875 0 L 101.140625 0 L 101.140625 -99.875 L 70.28125 -99.875 Z M 70.28125 -65.9375 "/></g></g></g><g fill="#112179" fill-opacity="1"><g transform="translate(1456.158608, 193.665421)"><g><path d="M 56.109375 3.21875 C 82.625 3.21875 101.703125 -12.765625 103.8125 -38.859375 L 72.53125 -38.859375 C 71.40625 -27.359375 66.078125 -21.75 56.390625 -21.75 C 44.890625 -21.75 37.734375 -30.296875 37.734375 -49.796875 C 37.734375 -68.171875 44.75 -77.296875 56.390625 -77.296875 C 65.234375 -77.296875 71.125 -72.25 72.53125 -62 L 103.53125 -62 C 100.578125 -86.96875 81.921875 -102.265625 56.109375 -102.265625 C 27.078125 -102.265625 6.3125 -82.0625 6.3125 -49.515625 C 6.3125 -16.96875 27.078125 3.21875 56.109375 3.21875 Z M 56.109375 3.21875 "/></g></g></g><g fill="#f8f2ea" fill-opacity="1"><g transform="translate(1619.311611, 193.665421)"><g><path d="M 39.84375 -38.015625 L 85.71875 -38.015625 L 85.71875 -62.5625 L 39.84375 -62.5625 L 39.84375 -73.921875 L 93.421875 -73.921875 L 93.421875 -99.875 L 8.421875 -99.875 L 8.421875 0 L 94.828125 0 L 94.828125 -25.953125 L 39.84375 -25.953125 Z M 39.84375 -38.015625 "/></g></g></g><g clip-path="url(#8268abad40)"><g clip-path="url(#a00be078be)"><path fill="#f8f2ea" d="M 1763.726562 79.175781 L 1887.488281 79.175781 L 1887.488281 202.9375 L 1763.726562 202.9375 Z M 1763.726562 79.175781 " fill-opacity="1" fill-rule="nonzero"/></g></g></svg>